<svg id="Layer_1" data-name="Layer 1" xmlns="http://www.w3.org/2000/svg" viewBox="0 0 500 107.05"><defs><style>.cls-1{fill:#f6f9e8;}.cls-2{fill:#16eb96;}</style></defs><polygon class="cls-1" points="149.27 84.16 140.05 84.16 140.05 24.35 149.27 24.35 149.27 55.37 162.6 44.09 185.41 24.35 198.4 24.35 169.69 48.7 197.89 84.16 185.93 84.16 162.77 54.6 149.27 66.13 149.27 84.16"/><rect class="cls-1" x="212.41" y="20.93" width="8.8" height="63.22"/><path class="cls-1" d="M971.11,563.37a18.83,18.83,0,0,0,8.93-2,15.13,15.13,0,0,0,5.94-5.42,15.19,15.19,0,0,0,0-15.55A14.89,14.89,0,0,0,980,535a19.18,19.18,0,0,0-8.93-2,18.77,18.77,0,0,0-8.75,2,15.14,15.14,0,0,0-6,5.38,15,15,0,0,0,0,15.55,15.39,15.39,0,0,0,6,5.42,18.43,18.43,0,0,0,8.75,2Zm25.55-37.59v44.85h-8.89V563.2a17.25,17.25,0,0,1-4.35,3.93,27.41,27.41,0,0,1-6.5,3.12,24,24,0,0,1-7.77,1.24,25.32,25.32,0,0,1-12.48-3,21.69,21.69,0,0,1-8.41-8.29,23.83,23.83,0,0,1-3-12.05,23,23,0,0,1,3.16-12.09,22.14,22.14,0,0,1,8.75-8.24,27.11,27.11,0,0,1,13-3A24.51,24.51,0,0,1,980.64,527a21.42,21.42,0,0,1,7.13,5v-6.24Z" transform="translate(-710 -486.48)"/><path class="cls-1" d="M1042.63,533.13a19.24,19.24,0,0,0-8.89,2,15.26,15.26,0,0,0-6,5.34,14.72,14.72,0,0,0,0,15.42,15.46,15.46,0,0,0,6,5.43,18.89,18.89,0,0,0,8.89,2,18.65,18.65,0,0,0,8.84-2,15.56,15.56,0,0,0,6-5.43,14.72,14.72,0,0,0,0-15.42,15.35,15.35,0,0,0-6-5.34,19,19,0,0,0-8.84-2Zm1.19-8.12a26.2,26.2,0,0,1,12.65,3,21.58,21.58,0,0,1,8.54,8.16,25,25,0,0,1,0,24,21.87,21.87,0,0,1-8.5,8.24,27.29,27.29,0,0,1-23.2.77,23.46,23.46,0,0,1-7.34-4.95v25.2h-8.89V525.69H1026v6.92a16.38,16.38,0,0,1,4.18-3.63,26.33,26.33,0,0,1,6.24-2.86,24.42,24.42,0,0,1,7.43-1.11Z" transform="translate(-710 -486.48)"/><path class="cls-1" d="M1106.11,533.13a19.24,19.24,0,0,0-8.89,2,15.26,15.26,0,0,0-6,5.34,14.72,14.72,0,0,0,0,15.42,15.46,15.46,0,0,0,6,5.43,18.89,18.89,0,0,0,8.89,2,18.65,18.65,0,0,0,8.84-2,15.56,15.56,0,0,0,6-5.43,14.72,14.72,0,0,0,0-15.42,15.35,15.35,0,0,0-6-5.34,19,19,0,0,0-8.84-2Zm1.19-8.12a26.2,26.2,0,0,1,12.65,3,21.58,21.58,0,0,1,8.54,8.16,25,25,0,0,1,0,24,21.87,21.87,0,0,1-8.5,8.24,27.29,27.29,0,0,1-23.2.77,23.46,23.46,0,0,1-7.34-4.95v25.2h-8.89V525.69h8.89v6.92a16.38,16.38,0,0,1,4.18-3.63,26.33,26.33,0,0,1,6.24-2.86,24.42,24.42,0,0,1,7.43-1.11Z" transform="translate(-710 -486.48)"/><path class="cls-1" d="M1155.15,570.63h-8.8V525.78h8.8ZM1150.7,516a5.82,5.82,0,0,1-4.44-1.54,5.59,5.59,0,0,1-1.45-4,5.77,5.77,0,0,1,1.45-3.84,5.51,5.51,0,0,1,4.44-1.71,5.83,5.83,0,0,1,4.45,1.54,5.64,5.64,0,0,1,1.45,4,5.83,5.83,0,0,1-1.45,3.85,5.52,5.52,0,0,1-4.45,1.71Z" transform="translate(-710 -486.48)"/><path class="cls-1" d="M1207.69,536a15.58,15.58,0,0,0-3.54-1.29,17.16,17.16,0,0,0-4.06-.51,14.7,14.7,0,0,0-7.31,1.84,14.07,14.07,0,0,0-5.17,4.83,12,12,0,0,0-1.87,6.49v23.32h-8.89V525.78h8.89v9.31a21.12,21.12,0,0,1,6.92-7.39,16.36,16.36,0,0,1,9.14-2.86,23.07,23.07,0,0,1,4.65.47,10.27,10.27,0,0,1,3.55,1.32Z" transform="translate(-710 -486.48)"/><path class="cls-2" d="M816.43,531.89a53.5,53.5,0,1,0,.62,8.14A53.59,53.59,0,0,0,816.43,531.89Zm-53.32,31.32a14.85,14.85,0,0,0,5.4-13.21c-.46-4-2.55-7.41-5.47-8.9a11.42,11.42,0,0,0-10.85.63A14.1,14.1,0,0,0,745,553.11a16.67,16.67,0,0,0,.28,4.32,19.16,19.16,0,0,1-6.9-12.77c-1-10,5.94-20.92,18.6-29.19a100.42,100.42,0,0,1,29.63-12.73c1.62,6.41,2.58,18.7,2.34,31.07-.28,14.39-5.18,25.84-13.45,31.41-4.61,3.1-9.81,3.9-14.27,2.18a16.6,16.6,0,0,1-2.45-1.17A26.87,26.87,0,0,0,763.11,563.21ZM753.86,562a12.49,12.49,0,0,1-2.88-8.5,8.18,8.18,0,0,1,4.16-6.55,6.64,6.64,0,0,1,3.26-.94,4.27,4.27,0,0,1,1.93.43c.89.46,2,2,2.23,4.25a8.91,8.91,0,0,1-3.31,8A20.36,20.36,0,0,1,753.86,562ZM720,558.75l-.21-.27a46.59,46.59,0,0,1-3.19-11.29A47.53,47.53,0,0,1,756.33,493a46.59,46.59,0,0,1,7.22-.56,47.17,47.17,0,0,1,20.59,4.73,104.49,104.49,0,0,0-30.42,13.27c-14.57,9.51-22.54,22.53-21.28,34.8.83,8.18,5.63,15.21,13.42,19.91C738.45,567.41,726.06,567.54,720,558.75ZM770.73,587a47.54,47.54,0,0,1-43.1-15.85,36.42,36.42,0,0,0,23.63-1.62l1.17-.51a23.57,23.57,0,0,0,6.66,4,19.54,19.54,0,0,0,7,1.28,23,23,0,0,0,12.76-4.09c9.92-6.68,15.79-19.89,16.1-36.26.2-10.22-.45-23.27-2.23-31.41.55.43,1.08.86,1.61,1.31A47.5,47.5,0,0,1,770.73,587Z" transform="translate(-710 -486.48)"/></svg>
